<?xml version="1.0" standalone="no"?>
<!DOCTYPE svg PUBLIC "-//W3C//DTD SVG 20010904//EN"
 "http://www.w3.org/TR/2001/REC-SVG-20010904/DTD/svg10.dtd">
<svg version="1.0" xmlns="http://www.w3.org/2000/svg"
 width="96.000000pt" height="96.000000pt" viewBox="0 0 96.000000 96.000000"
 preserveAspectRatio="xMidYMid meet">

<g transform="translate(0.000000,96.000000) scale(0.100000,-0.100000)"
fill="#000000" stroke="none">
<path d="M130 805 c-7 -8 -8 -15 -2 -15 5 0 15 7 22 15 7 8 8 15 2 15 -5 0
-15 -7 -22 -15z"/>
<path d="M203 813 c9 -2 23 -2 30 0 6 3 -1 5 -18 5 -16 0 -22 -2 -12 -5z"/>
<path d="M273 813 c9 -2 23 -2 30 0 6 3 -1 5 -18 5 -16 0 -22 -2 -12 -5z"/>
<path d="M348 813 c6 -2 18 -2 25 0 6 3 1 5 -13 5 -14 0 -19 -2 -12 -5z"/>
<path d="M423 813 c9 -2 23 -2 30 0 6 3 -1 5 -18 5 -16 0 -22 -2 -12 -5z"/>
<path d="M493 813 c9 -2 23 -2 30 0 6 3 -1 5 -18 5 -16 0 -22 -2 -12 -5z"/>
<path d="M568 813 c6 -2 18 -2 25 0 6 3 1 5 -13 5 -14 0 -19 -2 -12 -5z"/>
<path d="M643 813 c9 -2 23 -2 30 0 6 3 -1 5 -18 5 -16 0 -22 -2 -12 -5z"/>
<path d="M713 813 c9 -2 23 -2 30 0 6 3 -1 5 -18 5 -16 0 -22 -2 -12 -5z"/>
<path d="M790 805 c7 -8 17 -15 22 -15 6 0 5 7 -2 15 -7 8 -17 15 -22 15 -6 0
-5 -7 2 -15z"/>
<path d="M120 745 c0 -8 7 -15 16 -15 14 0 14 3 4 15 -7 8 -14 15 -16 15 -2 0
-4 -7 -4 -15z"/>
<path d="M800 745 c-10 -12 -10 -15 4 -15 9 0 16 7 16 15 0 8 -2 15 -4 15 -2
0 -9 -7 -16 -15z"/>
<path d="M180 740 c0 -5 12 -10 26 -10 14 0 23 4 19 10 -3 6 -15 10 -26 10
-10 0 -19 -4 -19 -10z"/>
<path d="M255 740 c-4 -6 5 -10 19 -10 14 0 26 5 26 10 0 6 -9 10 -19 10 -11
0 -23 -4 -26 -10z"/>
<path d="M335 740 c-4 -6 5 -10 20 -10 15 0 24 4 20 10 -3 6 -12 10 -20 10 -8
0 -17 -4 -20 -10z"/>
<path d="M410 740 c0 -5 12 -10 26 -10 14 0 23 4 19 10 -3 6 -15 10 -26 10
-10 0 -19 -4 -19 -10z"/>
<path d="M490 740 c0 -5 9 -10 20 -10 11 0 20 5 20 10 0 6 -9 10 -20 10 -11 0
-20 -4 -20 -10z"/>
<path d="M565 740 c-4 -6 5 -10 20 -10 15 0 24 4 20 10 -3 6 -12 10 -20 10 -8
0 -17 -4 -20 -10z"/>
<path d="M640 740 c0 -5 12 -10 26 -10 14 0 23 4 19 10 -3 6 -15 10 -26 10
-10 0 -19 -4 -19 -10z"/>
<path d="M720 740 c0 -5 9 -10 20 -10 11 0 20 5 20 10 0 6 -9 10 -20 10 -11 0
-20 -4 -20 -10z"/>
<path d="M91 637 c-18 -42 -31 -83 -28 -91 3 -8 18 -23 33 -32 25 -17 28 -17
55 -1 27 15 31 15 59 -1 28 -16 32 -16 60 0 28 16 32 16 59 1 27 -16 30 -16
54 0 24 16 28 16 56 -1 29 -16 33 -16 61 0 28 16 32 16 59 1 27 -16 30 -16 54
0 25 16 29 16 61 0 32 -15 36 -15 60 1 24 15 28 15 51 0 32 -21 72 -11 87 21
11 24 10 29 -37 139 -9 21 -18 36 -21 33 -3 -3 8 -37 25 -77 24 -55 28 -76 21
-91 -16 -29 -65 -25 -86 6 l-17 26 -11 -23 c-16 -31 -76 -33 -91 -2 l-10 21
-18 -23 c-24 -32 -62 -31 -83 1 l-17 26 -11 -23 c-16 -32 -76 -33 -92 -1 l-11
23 -11 -25 c-17 -36 -76 -36 -95 1 l-13 25 -12 -26 c-10 -22 -18 -26 -44 -23
-22 2 -36 11 -44 26 l-11 23 -17 -26 c-21 -31 -70 -35 -86 -6 -8 15 -3 35 20
87 17 37 29 72 27 77 -2 6 -18 -24 -36 -66z"/>
<path d="M293 655 c0 -33 2 -45 4 -27 2 18 2 45 0 60 -2 15 -4 0 -4 -33z"/>
<path d="M523 655 c0 -33 2 -45 4 -27 2 18 2 45 0 60 -2 15 -4 0 -4 -33z"/>
<path d="M736 680 c13 -66 24 -87 18 -35 -3 28 -10 54 -15 60 -6 6 -7 -4 -3
-25z"/>
<path d="M194 447 c-3 -8 -4 -49 -2 -93 l3 -79 123 -3 122 -3 0 96 0 95 -120
0 c-92 0 -122 -3 -126 -13z m236 -82 l0 -75 -110 0 -110 0 0 75 0 75 110 0
110 0 0 -75z"/>
<path d="M522 308 l2 -153 3 143 4 142 99 0 100 0 0 -140 c0 -89 4 -140 10
-140 7 0 10 51 8 148 l-3 147 -112 3 -113 3 2 -153z"/>
<path d="M663 295 c0 -13 7 -20 21 -21 16 -1 21 4 21 21 0 17 -5 22 -21 21
-14 -1 -21 -8 -21 -21z"/>
</g>
</svg>
